<svg width="32" height="32" viewBox="0 0 32 32" fill="none" xmlns="http://www.w3.org/2000/svg">
<path d="M16.0001 11C16.0001 8.24997 18.3126 5.96247 21.0626 5.99997C22.0256 6.01108 22.965 6.30011 23.7677 6.83231C24.5704 7.36451 25.2024 8.11722 25.5876 8.99997H30.0001L25.9626 13.0375C25.702 17.0932 23.9067 20.8974 20.9416 23.6768C17.9764 26.4562 14.0641 28.002 10.0001 28C6.00007 28 5.00006 26.5 5.00006 26.5C5.00006 26.5 9.00007 25 11.0001 22C11.0001 22 3.00006 18 5.00006 6.99997C5.00006 6.99997 10.0001 12 16.0001 13V11Z" stroke="black" stroke-width="2" stroke-linecap="round" stroke-linejoin="round"/>
</svg>
