<svg width="32" height="32" viewBox="0 0 32 32" fill="none" xmlns="http://www.w3.org/2000/svg">
<path d="M20 16L14 12V20L20 16Z" stroke="black" stroke-width="2" stroke-linecap="round" stroke-linejoin="round"/>
<path d="M3 16C3 19.725 3.3875 21.9 3.675 23.025C3.75427 23.3303 3.90418 23.6126 4.11262 23.8493C4.32106 24.086 4.58221 24.2703 4.875 24.3875C9.0625 25.9875 16 25.95 16 25.95C16 25.95 22.9375 25.9875 27.125 24.3875C27.4178 24.2703 27.6789 24.086 27.8874 23.8493C28.0958 23.6126 28.2457 23.3303 28.325 23.025C28.6125 21.9 29 19.725 29 16C29 12.275 28.6125 10.1 28.325 8.97503C28.2457 8.66978 28.0958 8.38744 27.8874 8.15077C27.6789 7.9141 27.4178 7.72973 27.125 7.61253C22.9375 6.01253 16 6.05003 16 6.05003C16 6.05003 9.0625 6.01253 4.875 7.61253C4.58221 7.72973 4.32106 7.9141 4.11262 8.15077C3.90418 8.38744 3.75427 8.66978 3.675 8.97503C3.3875 10.1 3 12.275 3 16Z" stroke="black" stroke-width="2" stroke-linecap="round" stroke-linejoin="round"/>
</svg>
